<svg xmlns="http://www.w3.org/2000/svg" style="display: none;">
  <defs>
    <symbol id="Client 4" width="168" height="88" fill="none" viewBox="0 0 168 88">
      <rect width="167" height="87" x=".5" y=".5" stroke="#8E8F99" rx="3.5"/>
      <path fill="#8E8F99" d="M56.078 37.518h-.003c-2.385 0-4.32 1.744-4.32 3.894v.003c0 2.15 1.935 3.894 4.32 3.894h.003c2.386 0 4.32-1.743 4.32-3.894v-.003c0-2.15-1.934-3.894-4.32-3.894Zm31.883-1.245c-.006-2.988-1.325-5.85-3.668-7.964-2.343-2.112-5.518-3.302-8.832-3.309-3.314.005-6.491 1.195-8.835 3.308-2.344 2.113-3.664 4.977-3.67 7.965v16.474s25.003-2.51 25.005-16.471v-.003ZM43 58.154c.006 2.079.924 4.071 2.554 5.541 1.63 1.47 3.84 2.299 6.145 2.305 2.305-.006 4.514-.834 6.144-2.304 1.63-1.47 2.548-3.46 2.555-5.54V46.695S43 48.442 43 58.154Zm8.699 2.054c-.45 0-.891-.12-1.266-.346a2.115 2.115 0 0 1-.839-.922 1.867 1.867 0 0 1-.13-1.186 2 2 0 0 1 .624-1.052 2.365 2.365 0 0 1 1.167-.562c.441-.08.9-.039 1.316.117.416.155.772.419 1.022.756.25.338.384.735.384 1.141.001.27-.057.539-.171.789-.114.25-.282.477-.493.669a2.31 2.31 0 0 1-.74.447 2.495 2.495 0 0 1-.874.157v-.008Zm15.91-3.693v4.266h-.879v-4.266h.879Zm1.7 1.822v.686h-1.94v-.686h1.94Zm.204-1.822v.688H67.37v-.688h2.144Zm4.014 2.033v.202c0 .325-.044.616-.132.873a1.92 1.92 0 0 1-.372.66c-.16.18-.352.317-.574.413a1.83 1.83 0 0 1-.736.143c-.267 0-.512-.048-.735-.143a1.648 1.648 0 0 1-.574-.413 1.93 1.93 0 0 1-.378-.66 2.696 2.696 0 0 1-.132-.873v-.202c0-.326.044-.617.132-.873a1.92 1.92 0 0 1 .372-.659c.162-.182.353-.32.574-.416a1.84 1.84 0 0 1 .736-.144c.27 0 .514.048.735.144a1.6 1.6 0 0 1 .574.416c.162.182.287.401.375.66.09.255.135.546.135.872Zm-.888.202v-.208c0-.226-.02-.425-.061-.597a1.295 1.295 0 0 0-.182-.434.784.784 0 0 0-.293-.264.838.838 0 0 0-.395-.09c-.149 0-.28.03-.396.09a.791.791 0 0 0-.29.264 1.333 1.333 0 0 0-.179.434 2.587 2.587 0 0 0-.061.597v.208c0 .225.02.424.061.598.041.172.102.317.182.437.08.117.178.206.293.266.115.06.247.091.395.091.149 0 .28-.03.396-.09a.786.786 0 0 0 .29-.267c.078-.12.138-.265.179-.437a2.61 2.61 0 0 0 .061-.598Zm3.741.914a.563.563 0 0 0-.035-.205.388.388 0 0 0-.123-.17 1.09 1.09 0 0 0-.255-.155 3.587 3.587 0 0 0-.424-.158 5.377 5.377 0 0 1-.551-.211 2.261 2.261 0 0 1-.457-.272 1.228 1.228 0 0 1-.31-.367 1.01 1.01 0 0 1-.112-.483 1 1 0 0 1 .117-.483c.078-.147.188-.272.328-.375.14-.106.307-.187.498-.244a2.28 2.28 0 0 1 .636-.085c.314 0 .589.057.823.17.234.114.416.269.545.466.13.197.196.423.196.677h-.873a.658.658 0 0 0-.079-.328.535.535 0 0 0-.234-.226.835.835 0 0 0-.393-.082.908.908 0 0 0-.38.07.507.507 0 0 0-.23.185.454.454 0 0 0-.075.258c0 .072.017.138.052.196a.594.594 0 0 0 .165.164c.072.051.16.099.266.144.106.045.228.089.366.132.233.07.437.149.613.237.177.088.326.186.445.296.12.11.209.233.27.372.06.139.09.296.09.472a1.024 1.024 0 0 1-.422.87c-.136.101-.3.178-.489.231a2.36 2.36 0 0 1-.636.08c-.21 0-.419-.028-.624-.083a1.894 1.894 0 0 1-.56-.255 1.285 1.285 0 0 1-.398-.433 1.242 1.242 0 0 1-.149-.624h.882c0 .133.02.245.061.337a.563.563 0 0 0 .173.222.743.743 0 0 0 .27.123c.105.026.22.038.345.038a.939.939 0 0 0 .375-.064.463.463 0 0 0 .293-.437Zm3.384-3.149v4.266h-.876v-4.266h.876Zm1.313 0v.688h-3.48v-.688h3.48Zm3.363 3.58v.686h-2.27v-.686h2.27Zm-1.983-3.58v4.266h-.88v-4.266h.88Zm1.687 1.737v.668h-1.975v-.668h1.975Zm.293-1.737v.688h-2.268v-.688h2.268Zm.516 0h1.59c.327 0 .607.049.841.146.237.098.418.243.545.434.127.191.19.427.19.706 0 .229-.038.425-.117.589a1.1 1.1 0 0 1-.325.407 1.685 1.685 0 0 1-.489.258l-.278.147h-1.383l-.006-.686h1.028a.805.805 0 0 0 .384-.082.537.537 0 0 0 .229-.229.703.703 0 0 0 .079-.34.773.773 0 0 0-.076-.354.514.514 0 0 0-.232-.228.855.855 0 0 0-.39-.08h-.712v3.578h-.878v-4.266Zm2.384 4.266-.972-1.902.928-.006.985 1.867v.04h-.94Zm4.615-1.52h-1.087v-.686h1.087a.892.892 0 0 0 .41-.082.527.527 0 0 0 .231-.235.86.86 0 0 0 0-.691.592.592 0 0 0-.231-.264.76.76 0 0 0-.41-.1h-.783v3.578h-.879v-4.266h1.662c.334 0 .62.06.858.182.24.119.424.284.55.495.128.21.191.452.191.723 0 .276-.063.514-.19.715-.127.201-.31.357-.55.466-.24.11-.525.164-.86.164Zm5.068.834v.686h-2.27v-.686h2.27Zm-1.983-3.58v4.266h-.88v-4.266h.88Zm1.687 1.737v.668H94.75v-.668h1.975Zm.293-1.737v.688H94.75v-.688h2.267Zm2.482 0v4.266h-.876v-4.266h.876Zm1.312 0v.688h-3.48v-.688h3.48Zm3.363 3.58v.686h-2.27v-.686h2.27Zm-1.983-3.58v4.266h-.879v-4.266h.879Zm1.687 1.737v.668h-1.974v-.668h1.974Zm.293-1.737v.688h-2.267v-.688h2.267Zm.516 0h1.591c.326 0 .606.049.841.146.236.098.418.243.545.434.127.191.19.427.19.706 0 .229-.039.425-.117.589a1.106 1.106 0 0 1-.325.407 1.689 1.689 0 0 1-.49.258l-.278.147h-1.383l-.006-.686h1.029a.8.8 0 0 0 .383-.082.537.537 0 0 0 .229-.229.7.7 0 0 0 .079-.34.769.769 0 0 0-.076-.354.514.514 0 0 0-.232-.228.851.851 0 0 0-.389-.08h-.712v3.578h-.879v-4.266Zm2.385 4.266-.973-1.902.929-.006.984 1.867v.04h-.94Zm3.679-1.117a.553.553 0 0 0-.035-.205.38.38 0 0 0-.123-.17 1.066 1.066 0 0 0-.255-.155 3.595 3.595 0 0 0-.424-.158 5.345 5.345 0 0 1-.551-.211 2.264 2.264 0 0 1-.457-.272 1.225 1.225 0 0 1-.311-.367 1.011 1.011 0 0 1-.111-.483c0-.178.039-.339.117-.483a1.12 1.12 0 0 1 .328-.375c.141-.106.307-.187.498-.244a2.26 2.26 0 0 1 .636-.085c.314 0 .589.057.823.17.235.114.416.269.545.466.131.197.196.423.196.677h-.873a.655.655 0 0 0-.079-.328.533.533 0 0 0-.234-.226.836.836 0 0 0-.393-.082.911.911 0 0 0-.381.07.51.51 0 0 0-.228.185.452.452 0 0 0-.076.258c0 .072.017.138.053.196a.582.582 0 0 0 .164.164c.072.051.161.099.266.144.106.045.228.089.366.132.233.07.437.149.613.237.177.088.326.186.445.296.119.11.209.233.27.372.06.139.09.296.09.472 0 .185-.036.351-.108.498a1.02 1.02 0 0 1-.314.372 1.462 1.462 0 0 1-.489.231c-.189.053-.401.08-.636.08a2.41 2.41 0 0 1-.624-.083 1.892 1.892 0 0 1-.559-.255 1.29 1.29 0 0 1-.399-.433 1.251 1.251 0 0 1-.149-.624h.882c0 .133.02.245.061.337a.566.566 0 0 0 .173.222.74.74 0 0 0 .27.123c.105.026.22.038.345.038a.934.934 0 0 0 .375-.064.462.462 0 0 0 .293-.437Z"/>
    </symbol>
    <symbol id="Client 1" width="168" height="88" fill="none" viewBox="0 0 168 88">
      <rect width="167" height="87" x=".5" y=".5" stroke="#8E8F99" rx="3.5"/>
      <path fill="#8E8F99" fill-rule="evenodd" d="m70 23 7.008 6.676L64 29.67v32.39h34V49.676l7 6.669V23H70Zm27.692 25.892-19.87-18.93h19.87v18.93Zm-6.169 8.43H69.38V35.538h1.565v20.31h20.578v1.476Zm-17.727 10.74-.825-1.698h-.681l1.196 2.246v1.309h.617V68.61l1.197-2.246h-.679l-.825 1.697Zm3.042-1.698h.146l1.343 3.555h-.644l-.288-.832h-1.376l-.287.832h-.642l1.338-3.555h.41Zm-.652 2.237h1.041l-.52-1.508-.52 1.508Zm4.296-.59a9.549 9.549 0 0 1-.077-.099 1.82 1.82 0 0 1-.213-.349.86.86 0 0 1-.075-.352c0-.185.038-.344.114-.478a.77.77 0 0 1 .325-.308c.14-.073.304-.11.49-.11a.94.94 0 0 1 .467.11.766.766 0 0 1 .35.984.896.896 0 0 1-.17.254 1.729 1.729 0 0 1-.248.218l-.247.18.704.83a1.407 1.407 0 0 0 .153-.664h.508c0 .173-.017.336-.051.49a1.523 1.523 0 0 1-.26.587l.52.615h-.68l-.207-.243a1.384 1.384 0 0 1-.365.2 1.624 1.624 0 0 1-.551.092c-.236 0-.44-.043-.613-.13a.97.97 0 0 1-.4-.356.975.975 0 0 1-.14-.52.77.77 0 0 1 .09-.38c.061-.111.143-.214.247-.308.096-.088.206-.175.33-.262Zm.292.358-.074.053a.914.914 0 0 0-.193.203.59.59 0 0 0-.034.6.515.515 0 0 0 .198.203.65.65 0 0 0 .32.073.91.91 0 0 0 .393-.09 1.06 1.06 0 0 0 .18-.112l-.79-.93Zm.14-.65.218-.146a.791.791 0 0 0 .22-.2.444.444 0 0 0 .066-.25.354.354 0 0 0-.374-.342.362.362 0 0 0-.339.21.502.502 0 0 0 .015.435c.037.077.088.157.154.242l.04.052Zm6.22 1.043h-.611a1.108 1.108 0 0 1-.112.393.554.554 0 0 1-.247.242.925.925 0 0 1-.422.083.748.748 0 0 1-.369-.086.707.707 0 0 1-.254-.242 1.192 1.192 0 0 1-.146-.373 2.365 2.365 0 0 1-.047-.488v-.3c0-.19.017-.357.052-.504.035-.148.088-.272.158-.373a.69.69 0 0 1 .261-.23.809.809 0 0 1 .367-.078c.17 0 .309.03.415.088.105.057.185.14.239.25.055.108.091.24.107.392h.61a1.53 1.53 0 0 0-.2-.632 1.128 1.128 0 0 0-.454-.432 1.509 1.509 0 0 0-.717-.156c-.223 0-.424.039-.603.117-.178.078-.33.19-.457.34a1.532 1.532 0 0 0-.293.529c-.067.206-.1.438-.1.693v.296c0 .255.033.486.098.693.066.207.162.383.288.53.125.145.276.257.451.337.176.078.374.117.594.117.286 0 .53-.052.73-.156.2-.105.355-.247.466-.428.11-.182.176-.39.195-.622Zm3.39-.523v-.195c0-.269-.035-.509-.107-.72a1.56 1.56 0 0 0-.3-.545 1.277 1.277 0 0 0-.467-.344c-.18-.08-.38-.12-.6-.12-.218 0-.418.04-.598.12-.18.078-.335.193-.467.344-.13.15-.23.332-.302.545a2.241 2.241 0 0 0-.108.72v.195c0 .269.036.51.108.723a1.6 1.6 0 0 0 .307.544c.132.15.288.265.467.345.18.078.38.117.598.117.22 0 .42-.04.6-.117.18-.08.336-.195.464-.345.13-.15.23-.33.3-.544a2.31 2.31 0 0 0 .105-.723Zm-.612-.2v.2c0 .199-.02.375-.059.528a1.159 1.159 0 0 1-.166.388.73.73 0 0 1-.269.237.813.813 0 0 1-.363.078.807.807 0 0 1-.362-.078.772.772 0 0 1-.273-.237 1.167 1.167 0 0 1-.171-.388 2.144 2.144 0 0 1-.059-.528v-.2c0-.198.02-.373.059-.525.04-.153.095-.28.169-.383a.728.728 0 0 1 .27-.234.787.787 0 0 1 .362-.081c.135 0 .256.027.364.08.107.053.197.13.27.235.075.103.132.23.169.383.04.152.059.327.059.525Z" clip-rule="evenodd"/>
    </symbol>
    <symbol id="Client 2" width="168" height="88" fill="none" viewBox="0 0 168 88">
      <rect width="167" height="87" x=".5" y=".5" stroke="#8E8F99" rx="3.5"/>
      <path fill="#8E8F99" fill-rule="evenodd" d="M82.114 21.934h-.137a17.43 17.43 0 0 0-.63-.022h-.455c-.397 0-.802.01-1.204.03a.628.628 0 0 0-.091 0 28.276 28.276 0 0 0-10.516 2.683l-.433.208v22.142l1.012-.344c.888-.305 1.834-.58 2.813-.834a34.329 34.329 0 0 1 8.095-1.075v2.909a23.25 23.25 0 0 0-1.065.03h-.084a32.36 32.36 0 0 0-6.228.956 31.635 31.635 0 0 0-7.42 2.892V23.112a29.728 29.728 0 0 1 7.785-3.166A29.793 29.793 0 0 1 80.892 19h.427c.511.013 1.01.036 1.478.071 1.233.087 2.456.282 3.655.582v2.864a22.638 22.638 0 0 0-3.541-.534l-.073-.006a8.726 8.726 0 0 0-.724-.043Zm5.039 2.927c.635.049 1.292.072 1.958.072a31.468 31.468 0 0 0 7.713-.99 31.767 31.767 0 0 0 7.417-2.893v27.89a29.809 29.809 0 0 1-7.786 3.166 29.943 29.943 0 0 1-7.337.944 22.405 22.405 0 0 1-5.565-.656V24.322c.43.1.873.191 1.323.267.739.125 1.518.216 2.277.272Zm14.194.216-1.012.341a44.2 44.2 0 0 1-2.813.842 34.263 34.263 0 0 1-8.406 1.078c-.66 0-1.267-.018-1.854-.056l-.807-.053v22.777l.693.06c.642.057 1.305.085 1.973.085a26.884 26.884 0 0 0 6.62-.857 27.746 27.746 0 0 0 5.173-1.86l.433-.208V25.078Z" clip-rule="evenodd"/>
      <path fill="#8E8F99" d="M67.737 61.212a1.491 1.491 0 0 0-1.126-.455 1.672 1.672 0 0 0-.65.122 1.464 1.464 0 0 0-.832.842c-.08.2-.119.413-.116.628v3.794c-.01.267.042.533.149.778.09.195.219.368.38.509.151.127.329.22.52.27.185.051.376.078.567.078.211.002.42-.043.612-.132a1.6 1.6 0 0 0 .96-1.465v-.424h-.993v.338a.88.88 0 0 1-.058.338.608.608 0 0 1-.144.214.697.697 0 0 1-.415.145.503.503 0 0 1-.465-.204.898.898 0 0 1-.132-.508v-3.538c-.006-.196.036-.39.122-.567a.507.507 0 0 1 .485-.229.527.527 0 0 1 .443.214.806.806 0 0 1 .164.509v.328h.982v-.387a1.79 1.79 0 0 0-.121-.664 1.56 1.56 0 0 0-.332-.534Zm5.892-.042a1.765 1.765 0 0 0-1.128-.418c-.202 0-.403.037-.592.107A1.56 1.56 0 0 0 71 61.7c-.1.231-.15.482-.145.735v3.638c-.006.256.043.51.145.746.09.195.22.369.384.508.152.14.33.25.524.32.19.07.39.106.592.107a1.714 1.714 0 0 0 1.128-.427c.158-.142.285-.315.374-.508.102-.235.151-.49.144-.746v-3.639a1.77 1.77 0 0 0-.144-.734 1.641 1.641 0 0 0-.374-.532Zm-.463 4.904a.656.656 0 0 1-.197.527.727.727 0 0 1-.934 0 .65.65 0 0 1-.197-.527v-3.639a.653.653 0 0 1 .197-.526.726.726 0 0 1 .934 0 .652.652 0 0 1 .197.526v3.64Zm8.201 1.626v-6.89h-.953l-1.253 3.647h-.017l-1.263-3.646h-.943v6.888h.984v-4.19h.017l.964 2.962h.491l.971-2.962h.018v4.19h.984Zm5.591-6.406c-.151-.17-.343-.3-.556-.377a2.184 2.184 0 0 0-.714-.107h-1.462v6.89h.981v-2.691h.506a1.8 1.8 0 0 0 .886-.188 1.43 1.43 0 0 0 .539-.527c.113-.183.19-.387.225-.6a4.9 4.9 0 0 0 .053-.783c.01-.33-.023-.662-.096-.984a1.466 1.466 0 0 0-.362-.633Zm-.506 2.1a.867.867 0 0 1-.091.359.552.552 0 0 1-.253.241 1.006 1.006 0 0 1-.463.087h-.448v-2.342h.506a.942.942 0 0 1 .443.086.556.556 0 0 1 .23.254 1 1 0 0 1 .086.384v.458c0 .16.01.326 0 .473h-.01Zm5.156-2.584h-.805l-1.518 6.89h.982l.288-1.48h1.338l.289 1.48h.981l-1.555-6.89Zm-.906 4.471.483-2.497h.018l.48 2.497h-.981Zm7.248-.321h-.018l-1.482-4.15h-.944v6.89h.981v-4.143h.02l1.5 4.142h.924v-6.888h-.981v4.15Zm5.998-4.15-.79 2.74h-.02l-.789-2.74h-1.04l1.348 3.978v2.911h.982v-2.911l1.348-3.977h-1.039ZM65 69.644h.473v1.328h.321v-1.328h.47v-.272H65v.272Zm3.977-.272-.62 1.6h.341l.132-.364h.638l.136.364h.35l-.636-1.6h-.341Zm-.05.967.217-.593.217.593h-.435Zm3.981.043h.37v.206a.613.613 0 0 1-.38.135.404.404 0 0 1-.34-.153.67.67 0 0 1-.118-.417c0-.356.154-.534.46-.534a.337.337 0 0 1 .362.255l.316-.061c-.068-.313-.293-.47-.678-.47a.804.804 0 0 0-.559.205.78.78 0 0 0-.23.615.872.872 0 0 0 .205.6.776.776 0 0 0 .607.234.96.96 0 0 0 .678-.254v-.63h-.693v.27Zm4.015-1.01h-.324v1.6h1.12V70.7h-.796v-1.328Zm3.394 0h-.323v1.6h.323v-1.6Zm3.319 1.068-.655-1.068h-.313v1.6h.3v-1.045l.643 1.045h.322v-1.6h-.297v1.069Zm3.001-.173h.797v-.272h-.797v-.35h.857v-.273h-1.181v1.6h1.214V70.7h-.89v-.433Zm7.275-.264h-.63v-.63h-.32v1.599h.32v-.7h.63v.7h.322v-1.6h-.322v.631Zm3.018.264h.8v-.272h-.8v-.35h.86v-.273h-1.18v1.6h1.212V70.7h-.89v-.433Zm4.093.001c.279-.044.42-.191.42-.445a.38.38 0 0 0-.157-.356.903.903 0 0 0-.468-.094h-.678v1.599h.322v-.669h.063a.433.433 0 0 1 .2.036.336.336 0 0 1 .114.117l.349.508h.384l-.195-.312a1.11 1.11 0 0 0-.354-.384Zm-.324-.222h-.237v-.401h.253a.838.838 0 0 1 .326.038.212.212 0 0 1 .046.255.213.213 0 0 1-.061.07.915.915 0 0 1-.327.038Zm3.411.221h.796v-.272h-.796v-.35h.86v-.273h-1.184v1.6H105V70.7h-.89v-.433Z"/>
    </symbol>
    <symbol id="Client 3" width="168" height="88" fill="none" viewBox="0 0 168 88">
      <rect width="167" height="87" x=".5" y=".5" stroke="#8E8F99" rx="3.5"/>
      <path fill="#8E8F99" d="M68.81 65.223c.016 0 .032.004.046.01a.123.123 0 0 1 .04.023l.22.208a1.819 1.819 0 0 1-.62.394c-.28.1-.58.148-.881.141a2.38 2.38 0 0 1-.828-.132 1.822 1.822 0 0 1-.624-.373 1.667 1.667 0 0 1-.403-.575 1.89 1.89 0 0 1-.141-.738 1.763 1.763 0 0 1 .152-.741c.096-.214.242-.41.427-.575a2.01 2.01 0 0 1 .663-.376 2.64 2.64 0 0 1 .853-.132c.27-.005.54.036.792.12.219.082.42.194.594.333l-.185.222a.179.179 0 0 1-.047.04.128.128 0 0 1-.075.017.183.183 0 0 1-.08-.024l-.1-.059-.137-.075a1.604 1.604 0 0 0-.436-.133 1.97 1.97 0 0 0-.329-.023 1.813 1.813 0 0 0-.613.099 1.41 1.41 0 0 0-.48.278c-.137.129-.244.28-.312.444a1.47 1.47 0 0 0-.113.585 1.5 1.5 0 0 0 .113.594 1.262 1.262 0 0 0 .765.715c.18.064.373.096.568.094.113.002.226-.005.337-.019a1.348 1.348 0 0 0 .729-.304.175.175 0 0 1 .105-.038Zm6.376-1.043c.004.25-.047.5-.149.734a1.59 1.59 0 0 1-.416.57c-.184.162-.406.29-.652.373a2.732 2.732 0 0 1-1.678 0 1.944 1.944 0 0 1-.65-.375 1.67 1.67 0 0 1-.419-.575 1.885 1.885 0 0 1 0-1.47 1.75 1.75 0 0 1 .42-.578 1.94 1.94 0 0 1 .649-.36c.54-.18 1.138-.18 1.678 0 .245.085.467.212.651.375a1.689 1.689 0 0 1 .566 1.306Zm-.58 0c.005-.2-.03-.4-.104-.59a1.213 1.213 0 0 0-.762-.719 1.971 1.971 0 0 0-1.22 0 1.314 1.314 0 0 0-.467.279 1.184 1.184 0 0 0-.298.44 1.71 1.71 0 0 0 0 1.18c.062.163.164.313.298.441.13.12.29.215.467.276.393.126.826.126 1.22 0a1.3 1.3 0 0 0 .466-.276c.133-.128.233-.278.296-.441.074-.19.11-.39.105-.59Zm4.931.619.057.132c.023-.047.042-.09.064-.132a1.1 1.1 0 0 1 .072-.13l1.41-2.19c.028-.039.053-.062.08-.07a.388.388 0 0 1 .116-.011h.417v3.563h-.494v-2.73a.929.929 0 0 1 0-.123l-1.419 2.221a.203.203 0 0 1-.083.081.252.252 0 0 1-.121.03h-.08a.25.25 0 0 1-.122-.03.2.2 0 0 1-.082-.08l-1.46-2.236v2.86h-.478v-3.556h.417a.389.389 0 0 1 .115.012.155.155 0 0 1 .078.068l1.44 2.193c.029.04.053.083.073.128Zm5.308-.177v1.334h-.552v-3.558h1.23c.233-.004.465.022.688.078.179.043.344.118.486.221a.92.92 0 0 1 .276.35c.065.145.097.299.094.455a.99.99 0 0 1-.4.811 1.42 1.42 0 0 1-.49.236 2.385 2.385 0 0 1-.664.082l-.668-.01Zm0-.382h.668c.145.001.29-.017.427-.055a.94.94 0 0 0 .31-.153.673.673 0 0 0 .254-.535.592.592 0 0 0-.056-.29.687.687 0 0 0-.193-.243 1.202 1.202 0 0 0-.742-.191h-.668v1.467Zm7.419 1.721h-.436a.21.21 0 0 1-.121-.033.224.224 0 0 1-.072-.082l-.375-.861h-1.886l-.389.86a.196.196 0 0 1-.069.08.21.21 0 0 1-.124.036h-.436l1.656-3.563h.574l1.678 3.563Zm-2.732-1.323h1.557l-.657-1.45a2.332 2.332 0 0 1-.125-.335l-.063.186c-.02.057-.041.108-.06.15l-.652 1.45Zm5.118-2.224a.234.234 0 0 1 .082.064l2.416 2.686v-2.767h.494v3.564h-.276a.273.273 0 0 1-.114-.02.3.3 0 0 1-.088-.067l-2.412-2.684a.964.964 0 0 1 0 .123v2.648h-.494v-3.563h.292a.262.262 0 0 1 .1.016Zm7.06 2.13v1.415h-.552v-1.415l-1.526-2.146h.494a.202.202 0 0 1 .119.03.31.31 0 0 1 .074.08l.955 1.385a1.698 1.698 0 0 1 .169.316l.071-.153c.027-.056.059-.11.094-.163l.942-1.394a.346.346 0 0 1 .071-.076.189.189 0 0 1 .119-.035h.5l-1.53 2.156Zm-22.447-8.127c.24.026.483.047.729.066 3.724-1.423 6.875-3.753 9.059-6.699 2.183-2.945 3.302-6.374 3.216-9.86l-4.104-3.507c.834 3.711.444 7.547-1.128 11.08-1.572 3.531-4.263 6.62-7.772 8.92Z"/>
      <path fill="#8E8F99" d="m77.797 56.254.11.019c3.75-2.292 6.61-5.492 8.208-9.187 1.599-3.695 1.863-7.714.759-11.539l-5.847-4.995c2.365 4.106 3.317 8.701 2.745 13.25-.572 4.55-2.644 8.868-5.975 12.452Zm19.828-12.212c-.993 3.83-3.406 7.284-6.879 9.85a21.958 21.958 0 0 1-3.268 2.004c2.828-.71 5.428-1.966 7.598-3.67 2.17-1.705 3.854-3.812 4.92-6.16l-2.37-2.024Z"/>
      <path fill="#8E8F99" d="m96.695 43.478-3.376-2.884c-.065 3.288-1.159 6.502-3.169 9.307-2.01 2.805-4.863 5.099-8.262 6.643h.017c.757 0 1.514-.039 2.266-.115 3.176-1.108 5.982-2.87 8.168-5.13 2.185-2.26 3.682-4.947 4.356-7.82ZM78.286 28.446 74.26 25c-3.6 1.189-6.697 3.278-8.884 5.995-2.188 2.718-3.364 5.936-3.375 9.233.014 3.645 1.449 7.18 4.08 10.049 2.63 2.868 6.305 4.905 10.442 5.789 3.694-3.846 5.857-8.597 6.174-13.564.317-4.967-1.228-9.89-4.41-14.056ZM106 42.948c-.015-4.324-2.031-8.466-5.609-11.523-3.578-3.057-8.427-4.78-13.487-4.793a21.774 21.774 0 0 0-6.837 1.087l24.658 21.068a14.099 14.099 0 0 0 1.275-5.84Z"/>
    </symbol>
    <symbol id="Client 6" width="168" height="88" fill="none" viewBox="0 0 168 88">
      <rect width="167" height="87" x=".5" y=".5" stroke="#8E8F99" rx="3.5"/>
      <path fill="#8E8F99" d="M85.53 43.443a2.953 2.953 0 0 1-.607-1.992v-2.888c0-.885.201-1.558.603-2.018.402-.46 1.092-.69 2.07-.688.92 0 1.572.196 1.958.588.42.5.625 1.111.578 1.727v.68h-1.644v-.688c.006-.225-.01-.45-.048-.673a.652.652 0 0 0-.234-.4.951.951 0 0 0-.596-.155 1.007 1.007 0 0 0-.627.164.769.769 0 0 0-.272.44 3.342 3.342 0 0 0-.065.715v3.505a1.79 1.79 0 0 0 .211.984.772.772 0 0 0 .328.239c.133.051.28.07.425.055.21.015.42-.042.582-.159a.706.706 0 0 0 .245-.426 3.84 3.84 0 0 0 .051-.702v-.711h1.644v.65a2.643 2.643 0 0 1-.568 1.815c-.378.429-1.021.643-1.968.643-.947 0-1.662-.229-2.067-.705Zm6.846.03c-.415-.45-.623-1.105-.623-1.972v-3.038c0-.858.208-1.507.623-1.948.416-.44 1.11-.66 2.084-.658.967 0 1.658.22 2.073.658.416.441.627 1.09.627 1.948v3.038c0 .858-.211 1.516-.633 1.969-.423.452-1.11.678-2.067.678-.957 0-1.665-.229-2.084-.675Zm2.85-.729c.149-.282.216-.59.198-.899v-3.72a1.65 1.65 0 0 0-.195-.88.776.776 0 0 0-.335-.243.907.907 0 0 0-.434-.052.92.92 0 0 0-.435.052.789.789 0 0 0-.338.242c-.15.275-.218.578-.197.882v3.737c-.021.309.047.617.197.899.096.094.214.17.347.222a1.161 1.161 0 0 0 .845 0c.133-.052.251-.128.347-.222v-.018Zm3.912-6.798h1.77l1.331 5.605 1.362-5.605h1.723l.174 8.09h-1.274l-.136-5.622-1.314 5.622h-1.021l-1.362-5.643-.126 5.643h-1.287l.16-8.09Zm8.345 0h2.758c1.588 0 2.383.766 2.383 2.297 0 1.467-.837 2.2-2.509 2.198h-.94v3.595h-1.702l.01-8.09Zm2.356 3.458c.168.018.339.005.501-.04a1.2 1.2 0 0 0 .435-.216c.195-.273.281-.594.245-.914a2.533 2.533 0 0 0-.081-.734.599.599 0 0 0-.126-.222.693.693 0 0 0-.215-.163 1.76 1.76 0 0 0-.759-.129h-.661v2.418h.661Zm5.24-3.458h1.828l1.876 8.09h-1.587l-.371-1.865h-1.631l-.381 1.865h-1.61l1.876-8.09Zm1.562 5.288-.636-3.396-.637 3.396h1.273Zm3.657-5.288h1.192l2.281 4.615v-4.615h1.413v8.09h-1.134l-2.295-4.817v4.817h-1.46l.003-8.09Zm8.195 5.006-1.896-4.995h1.597l1.157 3.208 1.086-3.208H132l-1.873 4.995v3.084h-1.634v-3.084Zm-40.335 6.622v.423h-1.39v3.287h-.581v-3.287H84.79v-.423h3.367Zm4.354 3.71h-.45a.2.2 0 0 1-.125-.035.193.193 0 0 1-.075-.085l-.402-.881h-1.927l-.402.881a.243.243 0 0 1-.06.1.208.208 0 0 1-.127.035h-.45l1.703-3.71h.593l1.722 3.695Zm-2.819-1.377H91.3l-.68-1.51a2.703 2.703 0 0 1-.127-.35l-.064.197-.062.156-.674 1.507Zm5.754 1.013c.107.005.214.005.32 0a1.94 1.94 0 0 0 .273-.044 2.1 2.1 0 0 0 .245-.067c.075-.027.15-.06.228-.092v-.834h-.681a.142.142 0 0 1-.05-.006.128.128 0 0 1-.042-.023.086.086 0 0 1-.026-.03.075.075 0 0 1-.008-.038v-.285h1.321v1.422a2.57 2.57 0 0 1-.718.303 3.22 3.22 0 0 1-.426.076 5.153 5.153 0 0 1-.497.024 2.596 2.596 0 0 1-.858-.139 2.092 2.092 0 0 1-.681-.387 1.792 1.792 0 0 1-.44-.588 1.854 1.854 0 0 1-.156-.77 1.923 1.923 0 0 1 .153-.775c.098-.22.248-.42.44-.588a2.07 2.07 0 0 1 .68-.385c.292-.095.602-.141.913-.138.159 0 .317.01.473.032.139.02.274.051.405.094.12.039.234.088.34.147.105.058.204.123.297.194l-.163.23a.143.143 0 0 1-.056.05.17.17 0 0 1-.077.02.222.222 0 0 1-.106-.03 2.103 2.103 0 0 1-.166-.088 1.51 1.51 0 0 0-.229-.1 2.137 2.137 0 0 0-.313-.082 2.625 2.625 0 0 0-.432-.032 2.018 2.018 0 0 0-.657.103 1.44 1.44 0 0 0-.5.294c-.142.133-.25.29-.317.46a1.733 1.733 0 0 0 0 1.238c.074.174.19.333.34.467.14.127.31.227.497.294.217.064.446.089.674.073Zm5.427-.059h1.859v.423h-2.427v-3.71h.582l-.014 3.287Zm3.793.423h-.582v-3.71h.582v3.71Zm2.166-3.693c.034.017.064.04.088.068l2.489 2.797a.73.73 0 0 1 0-.132v-2.765h.507v3.726h-.293a.277.277 0 0 1-.126-.021.344.344 0 0 1-.092-.07l-2.485-2.795v2.886h-.487v-3.711h.303c.033 0 .066.006.096.017Zm7.371-.017v.408h-2.064v1.225h1.672v.394h-1.672v1.266h2.064v.408h-2.663v-3.701h2.663ZM53.195 24.659l25.852 6.334v22.195l-25.852-6.33v-22.2Zm-1.658-1.892v25.168l29.165 7.148V29.918l-29.165-7.151Z"/>
      <path fill="#8E8F99" d="M67.168 66.767 38 59.613V34.447l29.168 7.15v25.17Z"/>
      <path fill="#8E8F99" d="m52.02 24.374 25.515 6.254-10.85 9.366-25.519-6.258 10.855-9.362Zm-.483-1.607L38 34.447l29.168 7.151 13.534-11.68-29.165-7.151ZM68.81 65.35l11.892-10.264-11.893-2.917v13.182Z"/>
    </symbol>
    <symbol id="Client 5" width="168" height="88" fill="none" viewBox="0 0 168 88">
      <rect width="167" height="87" x=".5" y=".5" stroke="#8E8F99" rx="3.5"/>
      <path fill="#8E8F99" d="M58.792 60.373c.245.274.376.616.37.968.012.229-.033.458-.132.67-.1.211-.25.4-.441.552a2.68 2.68 0 0 1-1.664.446H54v-6.132h2.865a2.647 2.647 0 0 1 1.587.407c.186.14.332.316.428.515.097.2.14.416.128.633.017.338-.101.67-.333.937a1.59 1.59 0 0 1-.871.48c.388.064.738.25.988.524Zm-3.431-.926h1.225a1.25 1.25 0 0 0 .778-.203.732.732 0 0 0 .21-.272.662.662 0 0 0 .053-.328.686.686 0 0 0-.055-.325.753.753 0 0 0-.204-.274 1.28 1.28 0 0 0-.802-.206H55.36v1.608Zm2.123 2.352a.77.77 0 0 0 .226-.281.694.694 0 0 0 .064-.342.704.704 0 0 0-.067-.346.781.781 0 0 0-.23-.283 1.366 1.366 0 0 0-.831-.222H55.36v1.687h1.301c.293.015.583-.06.822-.213Zm7.165 1.211-1.594-2.397h-.6v2.396h-1.37v-6.132h2.595a2.752 2.752 0 0 1 1.807.521c.363.333.582.772.617 1.237.036.465-.115.926-.424 1.3-.32.33-.757.551-1.238.624l1.698 2.45h-1.491Zm-2.193-3.233h1.121c.779 0 1.168-.31 1.168-.929a.831.831 0 0 0-.063-.371.908.908 0 0 0-.223-.318 1.307 1.307 0 0 0-.882-.248h-1.135l.014 1.866Zm9.687 1.998H69.41l-.483 1.234H67.49L70 56.946h1.554l2.499 6.063h-1.438l-.472-1.234Zm-.366-.928-.999-2.589-.998 2.588h1.997Zm9.746 2.163h-1.36l-3.052-4.17v4.17h-1.358v-6.133h1.358l3.051 4.194v-4.194h1.361v6.132Zm7.767-1.469a2.82 2.82 0 0 1-1.231 1.082c-.592.27-1.25.402-1.913.386h-2.423v-6.132h2.423a4.472 4.472 0 0 1 1.913.377c.521.237.95.61 1.231 1.07.28.499.426 1.05.426 1.609a3.28 3.28 0 0 1-.426 1.608Zm-1.557-.146a2.12 2.12 0 0 0 .602-1.464 2.12 2.12 0 0 0-.602-1.463 2.536 2.536 0 0 0-1.704-.522h-.945v3.97h.945a2.536 2.536 0 0 0 1.704-.521ZM72.995 22.767s17.566 5.97 17.194 14.61v14.614S72.635 46.017 73 37.377l-.007-14.61Zm32.844 25.803c3.318-2.056 7.155-3.33 11.161-3.703v-4.575c-4.616 1.602-8.531 4.505-11.161 8.277Z"/>
      <path fill="#8E8F99" d="M103.846 49.948c2.715-4.923 7.423-8.721 13.154-10.614V26.152s-25.018 8.505-24.489 20.809v20.806s1.115-.38 2.869-1.094c0-.665 0-1.336.08-2.01.518-5.712 3.534-11.005 8.386-14.715Z"/>
      <path fill="#8E8F99" d="M101.466 57.677c.132-1.443.425-2.87.876-4.26-3.022 3.204-4.851 7.18-5.232 11.369-.036.395-.056.79-.066 1.198a75.836 75.836 0 0 0 4.812-2.282 19.408 19.408 0 0 1-.39-6.025Zm.995.075a18.581 18.581 0 0 0 .31 5.455c6.835-3.682 14.515-9.37 14.219-16.246v-.6c-4.883.493-9.452 2.415-13.005 5.471a18.844 18.844 0 0 0-1.524 5.92Z"/>
    </symbol>
    <symbol id="Icon 2" width="264" height="112" fill="none" viewBox="0 0 264 112">
      <rect width="264" height="112" fill="#F4F4FD" rx="4"/>
      <g clip-path="url(#a)">
        <path fill="#2E2F42" d="M162.593 54.602c-.003-16.904-13.71-30.605-30.615-30.602-16.905.003-30.606 13.71-30.603 30.616a30.61 30.61 0 0 0 21.299 29.152c.121.038.247.058.373.057.242 0 .478-.065.685-.187.27-.16.472-.414.567-.713l7.73-24.5a3.826 3.826 0 1 0-.04-7.652 3.776 3.776 0 0 0-1.64.382l-10.212-10.213a1.275 1.275 0 0 0-1.803 1.804l10.207 10.218a3.751 3.751 0 0 0 1.072 4.618l-7.365 23.346c-14.556-5.362-22.009-21.508-16.647-36.064 5.362-14.555 21.508-22.008 36.064-16.647 14.555 5.362 22.008 21.509 16.647 36.064a28.087 28.087 0 0 1-14.925 15.947l-.796-3.749a1.274 1.274 0 0 0-2.096-.687l-7.674 6.851a1.275 1.275 0 0 0 .462 2.168l9.797 3.127a1.275 1.275 0 0 0 1.638-1.479l-.782-3.678a30.508 30.508 0 0 0 18.657-28.179Zm-30.609-1.275a1.276 1.276 0 1 1 0 2.553 1.276 1.276 0 0 1 0-2.553Zm4.201 29.728 4.368-3.896 1.206 5.68-5.574-1.784Z"/>
        <path fill="#4D5AE5" d="M130.709 30.37v2.55a1.275 1.275 0 1 0 2.551 0v-2.55a1.276 1.276 0 0 0-2.551 0Zm-22.957 22.957a1.275 1.275 0 1 0 0 2.55h2.551a1.275 1.275 0 0 0 0-2.55h-2.551Zm48.464 2.551a1.275 1.275 0 1 0 0-2.55h-2.551a1.275 1.275 0 0 0 0 2.55h2.551Z"/>
      </g>
      <defs>
        <clipPath id="a">
          <path fill="#fff" d="M100 24h64v64h-64z"/>
        </clipPath>
      </defs>
    </symbol>
    <symbol id="Icon 3" width="264" height="112" fill="none" viewBox="0 0 264 112">
      <rect width="264" height="112" fill="#F4F4FD" rx="4"/>
      <g clip-path="url(#a)">
        <path fill="#4D5AE5" d="M129.851 53.93h2.132v9.594h-2.132V53.93Zm8.529 4.264h2.132v5.33h-2.132v-5.33Zm-17.058 3.198h2.132v2.132h-2.132v-2.132Zm-6.396-1.066h2.132v3.198h-2.132v-3.198Z"/>
        <path fill="#2E2F42" d="M103.198 80.582h51.174a3.198 3.198 0 0 0 3.198-3.198v-4.265a3.198 3.198 0 0 0-3.198-3.198h-1.067V43.334l6.056-5.736a3.217 3.217 0 1 0-1.493-1.526l-4.563 4.325v-2.46a3.198 3.198 0 0 0-3.198-3.198h-42.644a3.199 3.199 0 0 0-3.199 3.199V69.92h-1.066A3.198 3.198 0 0 0 100 73.119v4.265a3.198 3.198 0 0 0 3.198 3.198Zm57.57-46.909a1.066 1.066 0 1 1 0 2.132 1.066 1.066 0 0 1 0-2.132Zm-54.371 4.265c0-.59.477-1.067 1.066-1.067h42.644c.589 0 1.066.478 1.066 1.067v4.477l-2.132 2.026V40.07c0-.589-.477-1.066-1.066-1.066h-38.38c-.589 0-1.066.477-1.066 1.066v26.652c0 .59.477 1.067 1.066 1.067h38.38c.589 0 1.066-.478 1.066-1.067V47.374l2.132-2.02V69.92h-44.776V37.938Zm9.595 13.859a3.198 3.198 0 1 0 2.214 5.497l3.706 1.86c.43.215.953.114 1.273-.246l7.877-8.863 7.744 5.803c.416.311.996.278 1.372-.079l6.731-6.375v16.262h-36.248v-24.52h36.248v5.32l-7.543 7.144-7.809-5.855a1.066 1.066 0 0 0-1.436.145l-7.986 8.985-2.986-1.493c.022-.128.036-.257.041-.387a3.198 3.198 0 0 0-3.198-3.198Zm1.066 3.198a1.067 1.067 0 1 1-2.133 0 1.067 1.067 0 0 1 2.133 0Zm6.396 17.058h10.661v1.066c0 .589-.477 1.066-1.066 1.066h-8.529a1.067 1.067 0 0 1-1.066-1.066v-1.066Zm-21.322 1.066c0-.589.478-1.066 1.066-1.066h18.124v1.066a3.198 3.198 0 0 0 3.198 3.198h8.529a3.199 3.199 0 0 0 3.199-3.198v-1.066h18.124c.588 0 1.066.477 1.066 1.066v4.265c0 .588-.478 1.066-1.066 1.066h-51.174a1.067 1.067 0 0 1-1.066-1.066v-4.265Z"/>
      </g>
      <defs>
        <clipPath id="a">
          <path fill="#fff" d="M100 24h64v64h-64z"/>
        </clipPath>
      </defs>
    </symbol>
    <symbol id="Icon 4" width="264" height="112" fill="none" viewBox="0 0 264 112">
      <rect width="264" height="112" fill="#F4F4FD" rx="4"/>
      <path fill="#4D5AE5" d="M163.948 33.048a1.069 1.069 0 0 0-.861-.725l-3.82-.556-1.71-3.462c-.359-.73-1.555-.73-1.913 0l-1.71 3.462-3.821.556a1.07 1.07 0 0 0-.862.725 1.07 1.07 0 0 0 .27 1.094l2.766 2.695-.653 3.806a1.069 1.069 0 0 0 1.548 1.124l3.418-1.797 3.418 1.797a1.064 1.064 0 0 0 1.124-.08c.328-.24.493-.644.423-1.044l-.652-3.806 2.766-2.696a1.07 1.07 0 0 0 .269-1.093Zm-4.926 2.654c-.25.244-.366.598-.306.944l.382 2.228-2.001-1.051a1.063 1.063 0 0 0-.994 0l-2.001 1.051.381-2.228a1.066 1.066 0 0 0-.306-.944l-1.62-1.579 2.238-.325c.348-.05.647-.269.803-.584l1.001-2.026 1 2.027c.156.314.456.533.803.583l2.238.325-1.618 1.579Zm-6.755 29.342h-2.133v2.134h2.133v-2.134Zm0 4.267h-2.133v2.134h2.133V69.31Zm2.133-2.133h-2.133v2.133h2.133v-2.133Zm-4.266 0H148v2.133h2.134v-2.133Zm-5.334 9.6h-2.133v2.133h2.133v-2.133Zm0 4.267h-2.133v2.133h2.133v-2.133Zm2.134-2.134H144.8v2.134h2.134V78.91Zm-4.267 0h-2.134v2.134h2.134V78.91ZM132 72.511h-2.133v2.134H132V72.51Zm0 4.267h-2.133v2.133H132v-2.133Zm2.133-2.134H132v2.134h2.133v-2.134Zm-4.266 0h-2.134v2.134h2.134v-2.134Zm-18.134-38.4H109.6v2.133h2.133v-2.133Zm0 4.266H109.6v2.134h2.133v-2.133Zm2.133-2.133h-2.133v2.134h2.133v-2.134Zm-4.266 0h-2.134v2.134h2.134v-2.134Z"/>
      <path fill="#2E2F42" d="M149.43 52.319a3.549 3.549 0 0 0-2.377-1.41 3.554 3.554 0 0 0-2.68.705l-2.503 1.919h-.001l-3.796 2.835-2.715-1.082c4.842-2.172 8.227-7.016 8.227-12.64 0-7.646-6.245-13.867-13.922-13.867-7.677 0-13.923 6.221-13.923 13.867 0 2.771.829 5.349 2.241 7.517l-5.528-.048h-.01c-.017 0-.031.008-.047.01a1.042 1.042 0 0 0-.31.062c-.026.01-.052.015-.077.026-.012.005-.025.006-.038.013l-6.466 3.193h-.002l-3.787 1.822a.777.777 0 0 0-.126.07 3.56 3.56 0 0 0-1.197 4.59 3.551 3.551 0 0 0 2.112 1.779 3.553 3.553 0 0 0 2.757-.257l2.776-1.476 4.528-2.339 2.714-.015-10.884 10.83-.003.003-2.677 2.666a3.297 3.297 0 0 0-.981 2.356 3.333 3.333 0 0 0 3.339 3.328c.856 0 1.709-.324 2.361-.97l2.628-2.618 3.482-2.6 1.801 1.794-3.523 3.508-.003.003-2.678 2.666a3.3 3.3 0 0 0-.98 2.356c0 .89.348 1.726.98 2.357.65.646 1.505.97 2.36.97a3.34 3.34 0 0 0 2.36-.97l2.679-2.667 4.285-4.266.002-.004 2.019-2-.008-.007c.013-.013.031-.017.044-.031l10.332-11.316 6.942.987a1.053 1.053 0 0 0 .525-.066c.035-.013.066-.03.099-.047.038-.019.079-.03.115-.054l6.427-4.267c.024-.016.036-.041.059-.059.025-.02.057-.028.081-.05l2.543-2.383a3.559 3.559 0 0 0 .424-4.723Zm-45.169 7.221c-.347.186-.74.223-1.117.104a1.43 1.43 0 0 1-.425-2.52l2.628-1.264.632 1.849.266.776-1.984 1.055Zm6.994-3.655-3.097 1.6-.51-1.493-.367-1.074 4.053-2-.079 2.967Zm30.199-13.241c0 1.837-.439 3.57-1.198 5.119l-8.363-3.798a3.72 3.72 0 0 0-1.576-2.776l2.928-9.72c4.755 1.512 8.209 5.948 8.209 11.175Zm-23.578 0c0-6.47 5.289-11.733 11.789-11.733.506 0 1 .042 1.49.104l-2.864 9.507c-.038 0-.075-.011-.114-.011a3.743 3.743 0 0 0-3.745 3.733 3.743 3.743 0 0 0 3.745 3.733 3.734 3.734 0 0 0 3.236-1.889l7.725 3.51c-2.149 2.893-5.589 4.78-9.473 4.78-6.5 0-11.789-5.264-11.789-11.734Zm11.913 1.6c0 .882-.724 1.6-1.612 1.6a1.608 1.608 0 0 1-1.612-1.6c0-.882.723-1.6 1.612-1.6.888 0 1.612.718 1.612 1.6ZM104.93 74.293a1.217 1.217 0 0 1-1.709 0 1.188 1.188 0 0 1 0-1.688l1.924-1.917 1.702 1.695-1.917 1.91Zm6.427 7.466a1.215 1.215 0 0 1-1.709.001 1.186 1.186 0 0 1 0-1.688l1.925-1.918.805.801.898.894-1.919 1.91Zm6.964-6.937c-.001 0-.002 0-.003.002l-3.53 3.52-.806-.801-.898-.894 3.527-3.51v-.002c.001 0 .002 0 .003-.002.08-.08.13-.176.179-.27.014-.028.041-.052.052-.08.034-.083.039-.171.052-.258.006-.049.027-.095.027-.145 0-.071-.025-.14-.04-.211-.013-.064-.013-.13-.037-.191-.041-.1-.11-.189-.183-.275-.02-.024-.028-.054-.05-.076h-.001l-.002-.004-3.214-3.2c-.034-.034-.078-.048-.116-.077a1.047 1.047 0 0 0-.174-.115 1.002 1.002 0 0 0-.187-.065 1.014 1.014 0 0 0-.206-.04 1.037 1.037 0 0 0-.191.01 1.084 1.084 0 0 0-.208.04.992.992 0 0 0-.188.09c-.04.022-.085.03-.122.057l-3.547 2.648-1.801-1.794 4.798-4.773 8.721 8.578-1.855 1.838Zm13.637-14.034c-.031-.004-.059.008-.09.006a1.106 1.106 0 0 0-.407.056.988.988 0 0 0-.193.094 1 1 0 0 0-.166.123c-.026.022-.057.033-.08.058l-9.397 10.292-8.656-8.514 5.666-5.636a1.067 1.067 0 0 0-.759-1.822l-4.437.026.055-3.215 6.208.053a13.897 13.897 0 0 0 9.963 4.202c.875 0 1.728-.09 2.559-.245.08.064.159.129.259.17l4.819 1.92.305 1.516.357 1.77-6.006-.854Zm8.083.357-.627-3.116 2.893-2.16.758 1.005 1.136 1.508-4.16 2.763Zm7.507-5.662-1.676 1.57-1.862-2.473 1.663-1.274c.31-.24.701-.336 1.085-.286a1.435 1.435 0 0 1 .79 2.463Z"/>
      <path fill="#2E2F42" d="m127.204 61.088-4.286-4.267a1.065 1.065 0 0 0-1.505 0l-4.285 4.267a1.073 1.073 0 0 0 0 1.513l4.285 4.266a1.065 1.065 0 0 0 1.505 0l4.286-4.266a1.07 1.07 0 0 0 0-1.513Zm-5.038 3.518-2.773-2.762 2.773-2.761 2.775 2.761-2.775 2.762Zm12.162-30.464-.515 2.071c.142.035 3.476.904 3.476 4.298h2.133c0-4.035-3.331-5.931-5.094-6.37Zm5.094 8.502h-2.133v2.134h2.133v-2.134Z"/>
    </symbol>
    <symbol id="Icon 1" width="264" height="112" fill="none" viewBox="0 0 264 112">
      <rect width="264" height="112" fill="#F4F4FD" rx="4"/>
      <path fill="#2E2F42" d="m161.546 68.195-16.886-17.01 1.874-9.23c.484.188.998.287 1.517.29h.013a4.318 4.318 0 1 0-4.017-2.87l-9.92 1.21-16.182-16.265a1.065 1.065 0 0 0-.753-.32c-.28.002-.548.113-.747.31l-3.025 3.008a1.067 1.067 0 0 0 0 1.509l1.628 1.65a29.885 29.885 0 0 0 5.039 35.327c.085.081.184.147.292.195a6.182 6.182 0 0 0-.104 1.094v12.374h-12.8a5.34 5.34 0 0 0-5.334 5.333v2.133c0 .59.478 1.067 1.067 1.067h49.067c.589 0 1.066-.478 1.066-1.067V84.8a5.34 5.34 0 0 0-5.333-5.333h-12.8v-5.484c2.005.42 4.048.635 6.097.64a29.7 29.7 0 0 0 14.08-3.567l1.636 1.646c.199.202.47.318.754.32.28-.002.548-.113.746-.31l3.025-3.008a1.066 1.066 0 0 0 0-1.509ZM146.56 36.466a2.133 2.133 0 1 1 1.503 3.646h-.006a2.133 2.133 0 0 1-1.493-3.646h-.004Zm-2.511 7.01-1.197 5.89-2.351-2.364 3.548-3.527Zm-1.212-1.804-3.84 3.817-2.971-2.987 6.811-.83Zm5.171 39.928a3.2 3.2 0 0 1 3.2 3.2v1.067h-46.933V84.8a3.2 3.2 0 0 1 3.2-3.2h40.533Zm-14.933-4.267v2.134h-10.667v-2.134h10.667ZM122.408 75.2v-8.107c0-2.587 2.393-4.693 5.333-4.693 2.941 0 5.334 2.106 5.334 4.693V75.2h-10.667Zm12.8-3.392v-4.715c0-3.764-3.349-6.826-7.467-6.826a7.6 7.6 0 0 0-6.562 3.572 27.739 27.739 0 0 1-4.557-31.774l37.204 37.417a27.643 27.643 0 0 1-18.618 2.326Zm22.578-1.368-1.503-1.51-39.102-39.339-1.509-1.512 1.509-1.504 15.87 15.96c.008 0 .012.013.02.019L159.3 68.936l-1.514 1.504Z"/>
      <path fill="#4D5AE5" d="M127.751 64.533h-.01a3.2 3.2 0 1 0-.009 6.4h.009a3.2 3.2 0 1 0 .01-6.4Zm.747 3.957a1.067 1.067 0 1 1-.757-1.823 1.067 1.067 0 0 1 .747 1.823h.01Z"/>
    </symbol>
    <symbol id="Ellipse" width="40" height="40" fill="none" viewBox="0 0 40 40">
      <path fill="#4D5AE5" d="M40 20a19.937 19.937 0 0 1-5.858 14.142A19.937 19.937 0 0 1 20 40a19.937 19.937 0 0 1-14.142-5.858A19.937 19.937 0 0 1 0 20 19.938 19.938 0 0 1 5.858 5.858 19.938 19.938 0 0 1 20 0a19.937 19.937 0 0 1 14.142 5.858A19.937 19.937 0 0 1 40 20Z"/>
      <g clip-path="url(#a)">
        <path fill="#F4F4FD" d="M27.984 16.704c-.037-.85-.175-1.435-.372-1.941a3.905 3.905 0 0 0-.925-1.42 3.939 3.939 0 0 0-1.416-.921c-.51-.197-1.09-.335-1.94-.372-.857-.04-1.13-.05-3.301-.05-2.173 0-2.445.01-3.298.047-.85.037-1.434.175-1.94.372a3.903 3.903 0 0 0-1.42.925 3.94 3.94 0 0 0-.922 1.416c-.197.51-.334 1.09-.372 1.94-.04.857-.05 1.13-.05 3.301 0 2.173.01 2.445.047 3.298.037.85.175 1.435.372 1.941.203.538.519 1.019.925 1.419.4.406.885.722 1.416.922.51.197 1.09.335 1.941.372.853.038 1.125.047 3.298.047 2.172 0 2.444-.01 3.297-.047.85-.037 1.435-.175 1.941-.372a4.092 4.092 0 0 0 2.341-2.341c.197-.51.335-1.09.372-1.941.038-.853.047-1.125.047-3.298 0-2.172-.003-2.444-.04-3.297Zm-1.44 6.532c-.035.782-.166 1.204-.276 1.485a2.654 2.654 0 0 1-1.519 1.52c-.281.109-.706.24-1.484.274-.844.038-1.097.047-3.232.047-2.135 0-2.391-.01-3.232-.047-.781-.034-1.203-.165-1.485-.275a2.463 2.463 0 0 1-.919-.597 2.487 2.487 0 0 1-.597-.919c-.11-.281-.24-.706-.275-1.484-.037-.844-.047-1.098-.047-3.232 0-2.135.01-2.391.047-3.232.035-.782.166-1.204.275-1.485.128-.347.332-.662.6-.919.26-.265.572-.469.92-.597.28-.11.706-.24 1.484-.275.844-.037 1.097-.047 3.232-.047 2.138 0 2.39.01 3.232.047.781.035 1.203.166 1.485.275.346.128.662.332.918.597.266.26.47.572.597.92.11.28.241.706.276 1.484.037.844.046 1.097.046 3.232 0 2.134-.009 2.384-.046 3.228Z"/>
        <path fill="#F4F4FD" d="M20.03 15.891a4.111 4.111 0 0 0 0 8.22 4.111 4.111 0 0 0 0-8.22Zm0 6.777a2.667 2.667 0 1 1 0-5.334 2.667 2.667 0 0 1 0 5.334Zm5.232-6.939a.96.96 0 1 1-1.92 0 .96.96 0 0 1 1.92 0Z"/>
      </g>
      <defs>
        <clipPath id="a">
          <path fill="#fff" d="M12 12h16v16H12z"/>
        </clipPath>
      </defs>
    </symbol>
    <symbol id="Ellipse" width="40" height="40" fill="none" viewBox="0 0 40 40">
      <path fill="#4D5AE5" d="M40 20a19.937 19.937 0 0 1-5.858 14.142A19.937 19.937 0 0 1 20 40a19.937 19.937 0 0 1-14.142-5.858A19.937 19.937 0 0 1 0 20 19.938 19.938 0 0 1 5.858 5.858 19.938 19.938 0 0 1 20 0a19.937 19.937 0 0 1 14.142 5.858A19.937 19.937 0 0 1 40 20Z"/>
      <g clip-path="url(#a)">
        <path fill="#F4F4FD" d="M28 15.039a6.839 6.839 0 0 1-1.89.518 3.262 3.262 0 0 0 1.443-1.813 6.555 6.555 0 0 1-2.08.794 3.28 3.28 0 0 0-5.674 2.243c0 .26.022.51.076.748a9.284 9.284 0 0 1-6.761-3.431 3.285 3.285 0 0 0 1.008 4.384 3.24 3.24 0 0 1-1.482-.404v.036a3.295 3.295 0 0 0 2.628 3.223 3.274 3.274 0 0 1-.86.108 2.9 2.9 0 0 1-.621-.056 3.311 3.311 0 0 0 3.065 2.285 6.59 6.59 0 0 1-4.067 1.399c-.269 0-.527-.012-.785-.045a9.234 9.234 0 0 0 5.032 1.472c6.036 0 9.336-5 9.336-9.334 0-.145-.005-.285-.012-.424A6.544 6.544 0 0 0 28 15.039Z"/>
      </g>
      <defs>
        <clipPath id="a">
          <path fill="#fff" d="M12 12h16v16H12z"/>
        </clipPath>
      </defs>
    </symbol>
    <symbol id="Ellipse" width="40" height="40" fill="none" viewBox="0 0 40 40">
      <path fill="#4D5AE5" d="M40 20a19.937 19.937 0 0 1-5.858 14.142A19.937 19.937 0 0 1 20 40a19.937 19.937 0 0 1-14.142-5.858A19.937 19.937 0 0 1 0 20 19.938 19.938 0 0 1 5.858 5.858 19.938 19.938 0 0 1 20 0a19.937 19.937 0 0 1 14.142 5.858A19.937 19.937 0 0 1 40 20Z"/>
      <g clip-path="url(#a)">
        <path fill="#F4F4FD" d="M22.665 14.656h1.46v-2.543A18.885 18.885 0 0 0 21.997 12c-2.106 0-3.548 1.325-3.548 3.76V18h-2.324v2.844h2.324V28h2.849v-7.155h2.23L23.882 18h-2.585v-1.959c.001-.822.222-1.385 1.368-1.385Z"/>
      </g>
      <defs>
        <clipPath id="a">
          <path fill="#fff" d="M12 12h16v16H12z"/>
        </clipPath>
      </defs>
    </symbol>
    <symbol id="Ellipse" width="40" height="40" fill="none" viewBox="0 0 40 40">
      <path fill="#4D5AE5" d="M40 20a19.937 19.937 0 0 1-5.858 14.142A19.937 19.937 0 0 1 20 40a19.937 19.937 0 0 1-14.142-5.858A19.937 19.937 0 0 1 0 20 19.938 19.938 0 0 1 5.858 5.858 19.938 19.938 0 0 1 20 0a19.937 19.937 0 0 1 14.142 5.858A19.937 19.937 0 0 1 40 20Z"/>
      <g clip-path="url(#a)">
        <path fill="#F4F4FD" d="M27.996 28H28v-5.87c0-2.87-.618-5.082-3.974-5.082-1.613 0-2.696.886-3.138 1.725h-.047v-1.457H17.66V28h3.314v-5.29c0-1.392.264-2.738 1.988-2.738 1.7 0 1.725 1.589 1.725 2.828V28h3.31ZM12.264 17.318h3.317V28h-3.317V17.318ZM13.921 12c-1.06 0-1.92.86-1.92 1.921 0 1.06.86 1.94 1.92 1.94 1.061 0 1.922-.88 1.922-1.94S14.98 12 13.92 12Z"/>
      </g>
      <defs>
        <clipPath id="a">
          <path fill="#fff" d="M12 12h16v16H12z"/>
        </clipPath>
      </defs>
    </symbol>
  </defs>
</svg>
